<?xml version="1.0" encoding="UTF-8" standalone="no"?>
<!-- Created with Inkscape (http://www.inkscape.org/) -->

<svg
   xmlns:dc="http://purl.org/dc/elements/1.1/"
   xmlns:cc="http://creativecommons.org/ns#"
   xmlns:rdf="http://www.w3.org/1999/02/22-rdf-syntax-ns#"
   xmlns:svg="http://www.w3.org/2000/svg"
   xmlns="http://www.w3.org/2000/svg"
   xmlns:sodipodi="http://sodipodi.sourceforge.net/DTD/sodipodi-0.dtd"
   xmlns:inkscape="http://www.inkscape.org/namespaces/inkscape"
   width="300mm"
   height="78mm"
   viewBox="0 0 300 78"
   version="1.1"
   id="svg8"
   inkscape:version="0.92.1 r15371"
   sodipodi:docname="ims_guia_logo.svg"
   inkscape:export-filename="/home/endeavour/Ãrea de trabalho/guia/docs/images/ims_guia_logo.png"
   inkscape:export-xdpi="50.799999"
   inkscape:export-ydpi="50.799999">
  <defs
     id="defs2" />
  <sodipodi:namedview
     id="base"
     pagecolor="#ffffff"
     bordercolor="#666666"
     borderopacity="1.0"
     inkscape:pageopacity="0.0"
     inkscape:pageshadow="2"
     inkscape:zoom="0.98245614"
     inkscape:cx="434.28571"
     inkscape:cy="316.42857"
     inkscape:document-units="mm"
     inkscape:current-layer="layer1"
     showgrid="false"
     inkscape:window-width="1920"
     inkscape:window-height="1016"
     inkscape:window-x="0"
     inkscape:window-y="27"
     inkscape:window-maximized="1" />
  <metadata
     id="metadata5">
    <rdf:RDF>
      <cc:Work
         rdf:about="">
        <dc:format>image/svg+xml</dc:format>
        <dc:type
           rdf:resource="http://purl.org/dc/dcmitype/StillImage" />
        <dc:title></dc:title>
      </cc:Work>
    </rdf:RDF>
  </metadata>
  <g
     inkscape:label="Camada 1"
     inkscape:groupmode="layer"
     id="layer1"
     transform="translate(0,-219)">
    <g
       id="g4506"
       transform="matrix(3.6871351,0,0,3.6871351,-89.07643,173.7513)"
       style="fill:#333333">
      <path
         style="fill:#333333;stroke-width:0.09227929"
         d="M 25.031298,23.022532 V 13.5056 h 0.942734 c 0.771744,0 0.953226,0.02564 1.000577,0.14135 0.0756,0.184743 0.0756,18.566421 0,18.751165 -0.04735,0.115712 -0.228833,0.14135 -1.000577,0.14135 h -0.942734 z m 3.38633,9.432774 c -0.03258,-0.04944 2.550129,-4.323289 5.739355,-9.497454 l 5.798592,-9.407572 h 0.947469 0.94747 l 0.04765,7.19355 0.04765,7.19355 0.34604,-0.536165 c 0.190321,-0.294891 2.02896,-3.270608 4.085864,-6.612704 2.056904,-3.342097 3.911682,-6.349364 4.121727,-6.682816 l 0.381902,-0.606277 0.916289,0.02543 0.916288,0.02543 v 9.472252 9.472252 h -0.95293 -0.95293 l -0.02437,-7.394612 c -0.01341,-4.067036 -0.05868,-7.394611 -0.100602,-7.394611 -0.04193,0 -2.078041,3.247553 -4.524701,7.216785 -2.44666,3.969232 -4.515752,7.306861 -4.597983,7.416952 -0.133511,0.178749 -0.230503,0.200167 -0.906449,0.200167 h -0.756941 l -0.0015,-7.305251 c -7.62e-4,-4.017888 -0.03785,-7.359088 -0.08232,-7.424887 -0.0558,-0.08255 -0.742073,0.95408 -2.214104,3.344462 -1.173283,1.905254 -3.226728,5.236401 -4.563212,7.402546 l -2.429972,3.938449 -1.064538,0.0252 c -0.640962,0.01517 -1.088106,-0.01056 -1.123773,-0.06468 z m 26.122739,0.02459 c -0.07942,-0.07448 -0.08421,-1.48378 -0.0057,-1.675654 0.04007,-0.09792 0.1811,-0.14135 0.458964,-0.14135 0.925872,0 2.319677,-0.350023 3.390253,-0.851385 1.242279,-0.581773 2.637686,-1.77598 3.31906,-2.840491 0.768975,-1.201368 1.254961,-2.678422 1.254961,-3.814193 0,-2.898309 1.118931,-5.448175 3.223664,-7.346219 1.833942,-1.653846 3.998734,-2.578097 6.380598,-2.724178 l 0.884951,-0.05428 -0.02731,0.929274 -0.02731,0.929273 -0.745364,0.06336 c -3.636034,0.309087 -6.723605,2.891919 -7.453574,6.235104 -0.06993,0.320278 -0.171959,1.205614 -0.226729,1.967416 -0.149663,2.081662 -0.597385,3.420384 -1.650707,4.935726 -1.579984,2.273018 -4.117978,3.855487 -6.922088,4.316004 -0.838086,0.137638 -1.745853,0.172695 -1.853672,0.07159 z"
         id="path4510"
         inkscape:connector-curvature="0" />
    </g>
    <flowRoot
       xml:space="preserve"
       id="flowRoot4498"
       style="font-style:normal;font-weight:normal;font-size:16px;line-height:1.25;font-family:sans-serif;letter-spacing:0px;word-spacing:0px;fill:#cccccc;fill-opacity:1;stroke:none"
       transform="matrix(2.9921742,0,0,2.9921742,-40.391762,45.2768)"><flowRegion
         id="flowRegion4500"
         style="fill:#cccccc"><rect
           id="rect4502"
           width="307.39285"
           height="228"
           x="75.321426"
           y="69.037544"
           style="fill:#cccccc" /></flowRegion><flowPara
         id="flowPara4504"
         style="font-style:normal;font-variant:normal;font-weight:normal;font-stretch:normal;font-family:'Open Sans';-inkscape-font-specification:'Open Sans';fill:#cccccc">GUIA</flowPara></flowRoot>  </g>
</svg>
